<?xml version="1.0" encoding="utf-8"?>
<svg width="8192.000000pt" height="795.000000pt" viewBox="0 0 8192.000000 795.000000" preserveAspectRatio="xMidYMid meet" xmlns="http://www.w3.org/2000/svg">
  <g>
    <path d="M 2184 14.1 C 2172.2 14.5 2131.1 15.6 2092.8 16.6 L 2023 18.4 L 2023 45.5 L 2023 72.6 L 2062.8 81.9 C 2084.6 87.1 2103.5 91.5 2104.8 91.8 L 2107 92.2 L 2107 396 L 2107 699.8 L 2102.3 701.2 C 2099.6 702 2080.7 707.6 2060.3 713.6 L 2023 724.5 L 2023 751.8 L 2023 779 L 2146.8 778.8 L 2270.5 778.5 L 2270.5 751.5 L 2270.5 724.6 L 2238.3 712.1 L 2206 699.7 L 2206 612.3 L 2206 525 L 2249.6 525.2 L 2293.3 525.5 L 2364.3 652.2 L 2435.4 779 L 2502.2 779 L 2569 779 L 2569 751.7 L 2569 724.5 L 2531.2 712 L 2493.3 699.5 L 2429.4 588 C 2394.3 526.7 2365.5 476.2 2365.5 475.7 C 2365.5 475.2 2388.5 440.7 2416.5 399.1 L 2467.5 323.3 L 2501.5 317.6 C 2520.2 314.4 2536.3 311.6 2537.3 311.4 C 2538.9 310.9 2539 308.6 2539 281.4 L 2539 251.9 L 2525.8 252.5 C 2518.5 252.8 2490 253.5 2462.5 254.1 C 2435 254.6 2395.9 255.5 2375.5 256 C 2355.2 256.5 2334.6 257 2329.7 257 L 2321 257 L 2321.2 284.2 L 2321.5 311.4 L 2343 318.1 C 2354.8 321.7 2364.6 325.2 2364.7 325.7 C 2364.9 326.2 2348.5 354.5 2328.2 388.6 L 2291.4 450.5 L 2248.7 450.8 L 2206 451 L 2205.8 232.3 L 2205.5 13.5 L 2184 14.1 Z" style="fill: rgb(75, 86, 88);"/>
    <path d="M 225 73.6 C 193.3 76.3 178.8 78.6 157.4 84 C 119 93.8 87.2 110.5 63 133.7 C 23.8 171.3 6 217.5 8.4 276 C 9.7 308 14.6 328.7 26.6 352.1 C 34.4 367.3 42.7 378.7 55.5 391.6 C 77.9 414.1 99.4 427.7 147.5 449.5 C 184.1 466.1 187.1 467.3 236.2 484.5 C 269.7 496.3 281.8 501.2 300 510.6 C 318.5 520.2 331.1 529.1 343 541.1 C 356.5 554.7 362.5 565.6 365.7 582.3 C 367.7 593.1 367 610.6 364 620.9 C 346.7 681.2 261.7 716.6 171.6 701 C 141.5 695.8 105.9 683.5 104.5 677.8 C 103.9 675.2 85 576.1 85 575.5 C 85 575.2 67.2 575 45.5 575 L 6 575 L 6 661.9 L 6 748.8 L 14.7 752 C 59.5 768.4 103.2 778.8 154.5 785.4 C 232.6 795.4 300.2 786.1 357.3 757.4 C 412.5 729.7 450.9 682.7 464 626.9 C 468.9 606.2 470.8 579.7 469.1 559 C 465.6 518.6 455.1 493.2 430.5 466 C 410.1 443.5 389 428.4 354.5 411.5 C 332.5 400.8 320.4 396 283.7 383.5 C 207.6 357.7 175.4 342.6 146.3 319.1 C 134.2 309.4 126.2 299.7 120.8 288.3 C 114.4 274.7 112.7 266.8 112.6 249.5 C 112.5 235.6 112.7 234 115.2 227.2 C 119.3 216 125.5 206.4 135.4 196.2 C 155.3 175.6 181.3 163.6 214.9 159.4 C 242.7 156 288.1 159.2 321.8 167.1 C 333.6 169.9 348.3 174.1 349.5 175.2 C 350 175.6 357.9 199.5 367 228.3 L 383.6 280.5 L 415.8 280.8 L 448 281 L 448 276.7 C 448 274.3 448.5 257.5 449 239.4 C 451.9 147 452.8 113.4 452.2 112.9 C 450.7 111.7 420.2 102.7 396.5 96.5 C 356.6 86.1 320.9 79.3 285.1 75.4 C 271.7 74 233.9 72.8 225 73.6 Z" style="fill: rgb(75, 86, 88);"/>
    <path d="M 699 122.1 C 672.3 127.5 650.4 131.9 650.3 132 C 650.1 132 650 160.1 650 194.5 L 650 256.9 L 646.8 257.4 C 643.8 257.9 553.5 267 551.8 267 C 551.3 267 551 281.4 551 299 L 551 331 L 600.5 331 L 650 331 L 650 487.7 C 650 578.3 650.4 651.7 651 661.5 C 654.4 719 668.7 749.9 702.3 771.8 C 721.6 784.4 747.7 790.1 777 788.1 C 816.5 785.4 853.3 772.4 889.6 748.4 C 896.1 744.1 901.9 740.2 902.4 739.9 C 902.9 739.5 897.3 727.5 890 713.2 L 876.7 687.1 L 867.7 691.6 C 853.7 698.7 838.1 704.7 825.3 708.1 C 810.5 712 792.5 712.7 782.5 709.7 C 766.5 704.8 757.2 694.3 751.7 675.1 L 749.5 667.5 L 749.2 499.2 L 749 331 L 821 331 L 893 331 L 893 294 L 893 257 L 821 257 L 749 257 L 749 184.5 C 749 144.6 748.7 112 748.3 112.1 C 747.8 112.2 725.7 116.6 699 122.1 Z" style="fill: rgb(75, 86, 88);"/>
    <path d="M 1200 242.6 C 1143 246.5 1096.4 264.4 1056 297.9 C 1030.5 319.1 1010.5 345.3 994.4 378.5 C 979.9 408.6 971.3 438.4 966.4 476 C 964.3 492.7 963.4 537 964.9 557.5 C 971.5 649.7 1004 714.1 1063.5 753 C 1074.9 760.4 1095.5 770.2 1109.5 774.8 C 1164.3 793 1234.3 793 1285.5 775 C 1343.2 754.6 1388 714.5 1416.6 657.8 C 1441.1 609.1 1451.1 560.4 1449.7 497.5 C 1448.9 463.6 1446.1 440.7 1439.3 413.6 C 1416.9 324 1358 264.7 1275 248 C 1254.2 243.9 1218.8 241.3 1200 242.6 Z M 1240.1 323.4 C 1298.9 334 1333.4 378.9 1343.5 458.1 C 1347.9 493.4 1347.1 544.3 1341.5 579.5 C 1335.9 614.5 1325.6 642.5 1310.5 663.5 C 1305.2 670.9 1293.4 682.7 1286 687.9 C 1262.9 704.3 1228.5 712.1 1193 709.1 C 1161.2 706.5 1135.1 695.6 1116.2 677.2 C 1092.3 653.8 1076.8 617.4 1070.6 569.8 C 1067.7 547.7 1066.6 517.7 1067.9 494 C 1071.4 429 1086 386.2 1114.5 357.4 C 1135.3 336.4 1160.6 325.2 1195.5 321.6 C 1203.6 320.8 1231.8 321.9 1240.1 323.4 Z" style="fill: rgb(75, 86, 88);"/>
    <path d="M 1767.5 242.9 C 1704.2 247.4 1648.2 272 1606.9 313.3 C 1588.3 331.9 1574.3 351.6 1562 376.5 C 1547.2 406.4 1538.5 435.1 1533.4 471 C 1530.9 488.7 1530.3 541 1532.4 561 C 1536.9 603.3 1546 636.9 1561.2 667.4 C 1597 738.9 1657.2 778.3 1744.5 787.1 C 1761.4 788.8 1794.6 788.5 1806.8 786.6 C 1852 779.5 1906.3 758.5 1945.4 733 C 1958.7 724.3 1976.5 710.6 1976.5 709.1 C 1976.5 708.7 1968.9 695.3 1959.6 679.3 L 1942.6 650.2 L 1933.1 658.7 C 1919.7 670.7 1911.6 676.1 1895.5 684 C 1872.7 695.2 1845.2 703.7 1819 707.7 C 1803.2 710.1 1773.3 710 1759.5 707.6 C 1719.4 700.5 1689 680.2 1666.6 645.7 C 1651.2 622.1 1641.3 591.5 1636.4 552.5 C 1633.9 532.9 1633.9 486.3 1636.4 466.1 C 1642.6 415.2 1657.2 380.9 1682.7 357 C 1701.3 339.6 1722.9 329.1 1750.9 323.7 C 1761.2 321.8 1765.5 321.5 1789.5 321.6 C 1818.6 321.7 1833 323 1857.2 327.6 C 1864.7 329 1871.6 330.7 1872.4 331.4 C 1873.4 332.1 1876.1 345.7 1881 373.5 C 1885 396 1888.4 414.8 1888.7 415.2 C 1888.9 415.7 1903.2 416 1920.5 416 L 1951.9 416 L 1952.4 411.7 C 1953.5 402.3 1957.2 282.8 1956.4 282 C 1954 279.6 1928.3 269 1911.5 263.4 C 1865.9 248.4 1807.6 240.1 1767.5 242.9 Z" style="fill: rgb(75, 86, 88);"/>
  </g>
  <g>
    <path d="M 3899 239 C 3821.5 245.8 3765.8 274 3726.5 326.5 C 3699.6 362.3 3683.6 409.4 3677.8 469.5 C 3676 488.6 3676.3 538.8 3678.4 558.2 C 3682.9 600.7 3691.6 633.3 3706.5 663.5 C 3742.4 736.3 3805.5 776.7 3896.2 785.1 C 3913.3 786.7 3962.6 785.7 3978 783.6 C 4033.6 775.7 4075 757 4108.7 724.6 C 4128.1 706 4141.3 687.8 4153.6 662.5 C 4169.6 629.7 4178.5 594 4182.1 548.7 C 4183.6 529.2 4182.7 475 4180.6 458 C 4169.8 372.8 4137.9 314.7 4081 276.8 C 4051.6 257.3 4016.6 245.4 3972 240 C 3960.3 238.6 3911.8 237.9 3899 239 Z M 3958 334.5 C 4018.4 344.5 4053.4 389.6 4062.4 469 C 4069 527.1 4061.9 586.9 4044 624.5 C 4031.2 651.3 4009.3 672.2 3983.6 682.1 C 3968 688.1 3956.6 690.1 3935 690.7 C 3907.2 691.5 3888.9 688.2 3869.3 679 C 3847.6 668.8 3828.2 649.4 3816.8 626.5 C 3801.3 595.4 3794 553.7 3795.3 502.5 C 3796.2 467.7 3799.5 445.7 3807.5 421.3 C 3825.1 367.8 3858.5 339.8 3913 333 C 3923 331.8 3946.2 332.6 3958 334.5 Z" style="fill: rgb(48, 171, 207);"/>
    <path d="M 4850.1 239 C 4750 247.4 4681.8 294.8 4648.6 379.4 C 4619.8 452.4 4619.8 568.9 4648.5 643.5 C 4677 717.6 4734.1 764.9 4813.8 780.4 C 4851.6 787.8 4905.4 788 4944.5 781 C 5037 764.4 5100.5 703.7 5123.4 609.8 C 5131.5 576.6 5133.4 558.2 5133.5 513 C 5133.5 474.5 5132.8 464.2 5128.5 438.3 C 5118.9 381.7 5097.8 337.2 5064.2 303.3 C 5029.7 268.4 4987.1 248.7 4929 240.9 C 4912.4 238.6 4867.5 237.6 4850.1 239 Z M 4909 334.5 C 4967.6 344.5 5002.1 386.9 5012.4 461.7 C 5015.3 482.3 5016.3 510 5015.1 531.7 C 5012.7 573.2 5006.8 599.5 4994.1 625.5 C 4977.7 659 4952.5 679.1 4916.1 687.7 C 4901.3 691.2 4871.7 692.1 4855.5 689.5 C 4793.9 679.9 4759.6 637.7 4748.3 557.9 C 4745.8 540.1 4745.8 484 4748.3 466 C 4754.9 419.7 4769.2 386.4 4792 364.7 C 4811.7 345.8 4832.8 336.9 4868 332.6 C 4874.8 331.8 4899.6 332.9 4909 334.5 Z" style="fill: rgb(48, 171, 207);"/>
    <path d="M 5442.7 240.5 C 5373.3 247.7 5321.8 269.9 5280.2 310.5 C 5260.4 329.7 5246.8 348.2 5235.2 371.5 C 5215.9 410.5 5207.4 449.1 5206.3 503.2 C 5204.9 571.4 5215.1 625 5238 670 C 5248.6 690.6 5259.3 705.5 5275.8 722.4 C 5311 758.2 5356 778.1 5416 784.6 C 5428.5 785.9 5437.9 786.1 5466 785.7 C 5528.1 784.8 5568.9 778.6 5627.3 761.3 L 5643 756.7 L 5643 618.3 L 5643 480 L 5537.5 480 L 5432 480 L 5432 527 L 5432 574 L 5482 574 L 5532 574 L 5532 629.4 L 5532 684.8 L 5529.3 685.4 C 5524.2 686.4 5508.6 688.9 5499 690.1 C 5493.7 690.8 5478.9 691.4 5465.5 691.5 C 5446.1 691.5 5439.6 691.1 5431.5 689.6 C 5385.5 681 5354.1 653.6 5336.7 607 C 5326.8 580.6 5322.6 552.7 5322.6 515 C 5322.7 489.8 5324 476.4 5328.5 457.5 C 5343.5 394.2 5386.5 349.6 5444.9 337 C 5465.5 332.5 5495.9 331.9 5520 335.5 C 5543.6 339 5570.5 347 5593.2 357.1 C 5599.3 359.8 5604.7 361.7 5605.1 361.3 C 5606.4 359.8 5642.1 272.8 5641.8 271.8 C 5641 269.5 5604.5 256.4 5585 251.5 C 5568.9 247.4 5552 244.1 5535.5 241.9 C 5515.5 239.2 5463.4 238.4 5442.7 240.5 Z" style="fill: rgb(48, 171, 207);"/>
    <path d="M 6389.8 265.7 C 6385.6 277.7 6343.4 397.7 6296.1 532.4 C 6248.7 667.1 6210 777.7 6210 778.2 C 6210 778.6 6237.4 779 6271 779 L 6331.9 779 L 6334.9 769.2 C 6336.5 763.9 6345.1 735.7 6354 706.6 C 6362.8 677.5 6370.3 653.3 6370.6 652.8 C 6370.9 652.4 6414.3 652 6467.1 652 L 6563.1 652 L 6564.4 655.2 C 6565.1 657 6574 685.6 6584.1 718.7 L 6602.4 779 L 6663.2 779 C 6710.9 779 6724 778.7 6724 777.8 C 6724 777.1 6706.5 726.8 6685 666 C 6663.6 605.2 6621.3 485.5 6591.2 400 L 6536.3 244.5 L 6466.8 244.2 L 6397.4 244 L 6389.8 265.7 Z M 6471.3 344 C 6474.6 356.5 6496.2 427.1 6524.8 518.7 L 6536.7 557 L 6467.9 557 C 6413.3 557 6399.2 556.7 6399.5 555.7 C 6404.8 540.1 6452.9 380.3 6460.5 353 C 6467.2 328.9 6466.9 329.6 6467.4 330.1 C 6467.6 330.3 6469.4 336.6 6471.3 344 Z" style="fill: rgb(48, 171, 207);"/>
    <path d="M 2706 512.5 L 2706 779 L 2762.5 779 L 2819 779 L 2819 684.5 L 2819 590 L 2846.8 590 C 2915.3 590 2950.3 583.9 2986.5 566 C 3033.5 542.6 3061.5 504.9 3070.5 453 C 3075.5 423.7 3074.7 389.8 3068.4 362.5 C 3061.2 331.9 3045.7 306.2 3023.5 288 C 2993.1 263.2 2953 250.1 2897.7 247 C 2888.3 246.5 2841.2 246 2793.3 246 L 2706 246 L 2706 512.5 Z M 2887.8 340 C 2933.1 344.9 2955.8 366.3 2958.9 407.1 C 2962.2 449.8 2943.5 478.7 2905 490.4 C 2888.7 495.3 2880.5 496.2 2848.8 496.7 L 2819 497.2 L 2819 418.1 L 2819 339 L 2848.5 339 C 2864.8 339 2882.4 339.5 2887.8 340 Z" style="fill: rgb(48, 171, 207);"/>
    <path d="M 3144 512.5 L 3144 779 L 3200.5 779 L 3257 779 L 3257 665.1 C 3257 570.4 3257.2 551.1 3258.4 550.1 C 3259.4 549.3 3287.7 549.1 3363.6 549.2 L 3467.5 549.5 L 3467.8 664.2 L 3468 779 L 3524.5 779 L 3581 779 L 3581 512.5 L 3581 246 L 3524.5 246 L 3468 246 L 3468 350.5 L 3468 455 L 3362.8 454.8 L 3257.5 454.5 L 3257.2 350.2 L 3257 246 L 3200.5 246 L 3144 246 L 3144 512.5 Z" style="fill: rgb(48, 171, 207);"/>
    <path d="M 4212 293.5 L 4212 341 L 4284 341 L 4356 341 L 4356 560 L 4356 779 L 4412.5 779 L 4469 779 L 4469.2 560.2 L 4469.5 341.5 L 4541.8 341.2 L 4614 341 L 4614 293.5 L 4614 246 L 4413 246 L 4212 246 L 4212 293.5 Z" style="fill: rgb(48, 171, 207);"/>
    <path d="M 5770 512.5 L 5770 779 L 5826.5 779 L 5883 779 L 5883 677 L 5883 575 L 5912.8 575 L 5942.5 575.1 L 6005 675.7 C 6039.3 731 6067.9 776.9 6068.5 777.6 C 6069.3 778.8 6079.5 779 6132.3 778.8 L 6195.1 778.5 L 6183.8 762 C 6165.8 735.9 6125.2 675.8 6080.3 608.8 L 6039 547.2 L 6045.6 544.1 C 6078.5 528.7 6106.9 502.3 6121.8 473.3 C 6134.3 449 6139 423.9 6136.9 392.1 C 6134.3 350.3 6122.4 321.1 6098.1 297 C 6071.6 270.6 6033.9 255.6 5978.2 249 C 5959 246.8 5927.1 246 5849.8 246 L 5770 246 L 5770 512.5 Z M 5953.5 341.5 C 5987.8 346.9 6006.8 357.5 6016 376.4 C 6020.9 386.4 6023 396.1 6023 409.1 C 6023 439.1 6010.1 460.6 5985.4 471.5 C 5967.1 479.7 5949.4 482.3 5912 482.4 L 5883.5 482.5 L 5883.2 410.6 L 5883 338.7 L 5913.2 339.3 C 5933.4 339.7 5946.8 340.4 5953.5 341.5 Z" style="fill: rgb(48, 171, 207);"/>
    <path d="M 6791 512.5 L 6791 779 L 6847.5 779 L 6904 779 L 6904.2 684.7 L 6904.5 590.5 L 6942.5 589.9 C 6968.1 589.4 6985.1 588.7 6994.5 587.5 C 7047.7 581.2 7085 565.1 7114.1 536.1 C 7140.2 510.1 7153.7 479.9 7158.1 438.2 C 7159.8 421.5 7158.8 387.6 7156.1 372.6 C 7150.7 342.6 7138.9 318.3 7120.2 298.8 C 7098.6 276.2 7071 261.7 7034.7 253.6 C 7004.7 246.9 6986.4 246 6878.3 246 L 6791 246 L 6791 512.5 Z M 6986 341.8 C 7025.2 350 7043.2 371.7 7044.7 412.5 C 7045.3 429.1 7043.1 441 7036.9 453.8 C 7033.5 461 7031.2 464 7024.1 471 C 7017 478 7013.8 480.4 7006 484.3 C 6996.4 489 6983.9 492.8 6970 495.1 C 6965.2 495.9 6952.2 496.4 6933.5 496.4 L 6904.5 496.5 L 6904.2 419 C 6904.1 376.4 6904.2 340.9 6904.5 340.1 C 6904.9 339 6911.2 338.9 6940.8 339.3 C 6971.3 339.7 6977.9 340.1 6986 341.8 Z" style="fill: rgb(48, 171, 207);"/>
    <path d="M 7215 512.5 L 7215 779 L 7271.5 779 L 7328 779 L 7328.2 664.2 L 7328.5 549.5 L 7432.4 549.2 C 7508.3 549.1 7536.6 549.3 7537.6 550.1 C 7538.8 551.1 7539 570.4 7539 665.1 L 7539 779 L 7595 779 L 7651 779 L 7651 512.5 L 7651 246 L 7595 246 L 7539 246 L 7538.8 350.2 L 7538.5 454.5 L 7433.3 454.8 L 7328 455 L 7328 350.5 L 7328 246 L 7271.5 246 L 7215 246 L 7215 512.5 Z" style="fill: rgb(48, 171, 207);"/>
    <path d="M 7719 247 C 7719 247.6 7758.6 321.8 7807 412 L 7895 575.8 L 7895 677.4 L 7895 779 L 7951.5 779 L 8008 779 L 8008 675.2 L 8008 571.5 L 8096 409.5 C 8144.4 320.4 8184 247.2 8184 246.7 C 8184 246.3 8156.5 246.1 8122.9 246.2 L 8061.9 246.5 L 8043.4 283 C 8033.2 303.1 8008.4 352 7988.3 391.8 C 7968.2 431.6 7951.4 463.8 7950.9 463.3 C 7950.5 462.9 7928 418.4 7900.9 364.5 C 7873.8 310.6 7849.3 262 7846.4 256.5 L 7841.1 246.5 L 7780 246.2 C 7737.5 246.1 7719 246.3 7719 247 Z" style="fill: rgb(48, 171, 207);"/>
  </g>
</svg>